<svg width="640" height="480" xmlns="http://www.w3.org/2000/svg" xmlns:svg="http://www.w3.org/2000/svg">
 <!-- Created with SVG-edit - http://svg-edit.googlecode.com/ -->
 <g>
  <title>Layer 1</title>
  <g id="svg_10">
   <g transform="rotate(15.544978141784668 254.86335754394554,239.21194458007807) " id="svg_46">
    <path fill="none" stroke="#fff" stroke-width="10" stroke-dasharray="null" stroke-linejoin="null" stroke-linecap="null" fill-opacity="0.01" d="m236,37l39,0l1,87c0,22 27,25 28,46c1,21 2,255 1,265c-1,10 -98,7 -100,0c-2,-7 1,-240 1,-264c0,-24 28,-26 29,-48c1,-22 0,-75 1,-86z" id="svg_44"/>
    <path fill="none" stroke="#fff" stroke-width="10" stroke-dasharray="null" stroke-linejoin="null" stroke-linecap="null" fill-opacity="0.01" d="m205,366c0,15 100,13 100,-2c0,-15 -1,-153 -1,-138c0,15 -97,13 -97,-1c0,-14 -2,126 -2,141z" id="svg_45"/>
   </g>
   <path id="svg_9" d="m403,234l78,0c0,0 11,38 11,55c0,17 -8,37 -16,45c-8,8 -25,3 -25,21c0,18 -1,52 1,57c2,5 34,8 38,18c4,10 -102,12 -98,2c4,-10 41,-15 41,-20c0,-5 3,-40 -1,-58c-4,-18 -9,-9 -21,-19c-12,-10 -20,-26 -19,-46c1,-20 11,-55 11,-55z" stroke-linecap="null" stroke-linejoin="null" stroke-dasharray="null" stroke-width="10" stroke="#fff" fill="none"/>
  </g>
 </g>
</svg>